<?xml version="1.0" encoding="UTF-8"?>
<svg xmlns="http://www.w3.org/2000/svg" version="1.1" viewBox="0 0 60 30">
  <defs>
    <style>
      .cls-1 {
        fill: red;
      }

      .cls-2 {
        fill: beige;
      }

      .cls-3 {
        fill: #72490b;
      }
    </style>
  </defs>
  <!-- Generator: Adobe Illustrator 28.7.1, SVG Export Plug-In . SVG Version: 1.2.0 Build 142)  -->
  <g>
    <g id="_Слой_1" data-name="Слой_1">
      <g>
        <g>
          <rect class="cls-2" x="15.5" y="8.5" width="28" height="10"/>
          <path class="cls-3" d="M43,9v9h-27v-9h27M44,8H15v11h29v-11h0Z"/>
        </g>
        <g>
          <rect class="cls-2" x="13.5" y="14.5" width="4" height="9"/>
          <path class="cls-3" d="M17,15v8h-3v-8h3M18,14h-5v10h5v-10h0Z"/>
        </g>
        <g>
          <rect class="cls-2" x="41.5" y="14.5" width="5" height="9"/>
          <path class="cls-3" d="M46,15v8h-4v-8h4M47,14h-6v10h6v-10h0Z"/>
        </g>
        <g>
          <rect class="cls-2" x="17.5" y="18.5" width="24" height="3"/>
          <path class="cls-3" d="M41,19v2h-23v-2h23M42,18h-25v4h25v-4h0Z"/>
        </g>
        <path class="cls-1" d="M17.93,23.64c-.88.42-2.62,1.11-4.67,1.11-2.3,0-4.2-.78-5.69-2.66-1.31-1.67-2.12-4.36-2.12-7.5.02-6,3.14-10.39,8.24-10.39,1.76,0,3.14.51,3.79.93l-.47,2.12c-.81-.48-1.83-.87-3.36-.87-3.7,0-6.11,3.05-6.11,8.09,0,5.11,2.32,8.12,5.87,8.12,1.29,0,2.17-.24,2.62-.54v-6s-3.09,0-3.09,0v-2.09h5.01v9.68Z"/>
      </g>
    </g>
  </g>
</svg>